<?xml version="1.0" standalone="no"?><!DOCTYPE svg PUBLIC "-//W3C//DTD SVG 1.1//EN" "http://www.w3.org/Graphics/SVG/1.1/DTD/svg11.dtd"><svg t="1486951301583" class="icon" style="" viewBox="0 0 1024 1024" version="1.1" xmlns="http://www.w3.org/2000/svg" p-id="1824" xmlns:xlink="http://www.w3.org/1999/xlink" width="200" height="200"><defs><style type="text/css"></style></defs><path d="M910.789043 384.380576h-60.410612V266.496946c0-0.417363-0.203331-1.043407-0.20333-1.460771 0-0.626044-0.208681-1.043407-0.208682-1.674802 0-0.417363-0.208681-1.043407-0.417363-1.460771s-0.208681-1.043407-0.417363-1.46077c-0.208681-0.422714-0.208681-1.048758-0.417363-1.466121-0.208681-0.417363-0.417363-1.043407-0.626044-1.46077a10.27355 10.27355 0 0 1-0.626045-1.466121c-0.208681-0.417363-0.422714-1.043407-0.626044-1.460771a4.457222 4.457222 0 0 0-0.834726-1.257439c-0.208681-0.417363-0.626044-0.834726-0.834726-1.252089s-0.626044-0.834726-0.834726-1.252089c-0.208681-0.417363-0.631395-0.840077-0.834726-1.25744l-1.252089-1.252089c-0.208681-0.208681-0.417363-0.626044-0.626044-0.834726L613.776445 9.406719l-0.208682-0.214032-1.252089-1.252089a3.665303 3.665303 0 0 0-1.043407-0.834726 4.366259 4.366259 0 0 0-1.252089-0.834726c-0.422714-0.422714-0.834726-0.631395-1.252089-1.048758-0.417363-0.208681-0.834726-0.417363-1.043407-0.626045-0.417363-0.417363-1.043407-0.626044-1.466121-0.834726l-1.246738-0.626044c-0.626044-0.208681-1.043407-0.631395-1.674803-0.840077-0.422714-0.208681-0.834726-0.417363-1.252089-0.417363-0.417363-0.208681-1.043407-0.417363-1.46077-0.626044s-1.048758-0.208681-1.460771-0.417363c-0.417363-0.208681-1.043407-0.208681-1.46077-0.417363-0.417363 0-0.834726-0.208681-1.466121-0.208682-0.620694 0-1.038057-0.208681-1.669452-0.208681H113.390371C75.768847 0 45.253194 30.306971 45.253194 67.511133v888.110904c0 37.204162 30.515653 67.511133 68.137177 67.511132h668.43352c2.092166 0 4.387662-0.208681 6.479827-0.208681 2.509529 0.626044 5.019057 1.043407 7.731917 1.043407h114.534025c39.510359 0 68.142528-29.054882 68.142528-68.977254V438.932054c0.214032-29.054882-31.762391-54.551478-67.923145-54.551478M606.670573 93.639124L767.612148 261.895252h-141.08473c-10.867489 0-20.065526-11.916247-20.065527-25.91931V93.639124h0.208682z m180.172375 861.356868c0 2.300847-2.092166 4.17363-4.805025 4.17363H113.599053c-2.71821 0-4.805025-1.878133-4.805025-4.17363V66.885088c0-2.300847 2.086815-4.184331 4.805025-4.184331h429.948049v173.066504c0 49.32909 37.412843 89.251462 83.397679 89.251462h159.898167v629.977269z m128.75112-0.840077c0 5.43642-1.252089 5.853783-4.805025 5.853783H850.175101c0.208681-1.674803 0.208681-3.135573 0.208681-4.805024V447.712729h60.405261c1.883484 0 3.552936 0.417363 4.805025 0.834725v505.608461z" p-id="1825"></path><path d="M592.876192 352.821516h-312.059068a31.532306 31.532306 0 0 0-31.564411 31.564411 31.532306 31.532306 0 0 0 31.564411 31.55906h312.059068a31.532306 31.532306 0 0 0 31.55906-31.55906c0-17.358018-14.211744-31.564411-31.55906-31.564411m0 187.064215h-312.059068a31.532306 31.532306 0 0 0-31.564411 31.564411 31.532306 31.532306 0 0 0 31.564411 31.553709h312.059068a31.526955 31.526955 0 0 0 31.55906-31.553709c0-17.347316-14.211744-31.564411-31.55906-31.564411m0 187.069566h-312.059068a31.532306 31.532306 0 0 0-31.564411 31.55906 31.532306 31.532306 0 0 0 31.564411 31.55906h312.059068c17.555998 0 31.55906-14.211744 31.55906-31.55906s-14.211744-31.55906-31.55906-31.55906" p-id="1826"></path></svg>