<?xml version="1.0" standalone="no"?><!DOCTYPE svg PUBLIC "-//W3C//DTD SVG 1.1//EN" "http://www.w3.org/Graphics/SVG/1.1/DTD/svg11.dtd"><svg t="1486694362223" class="icon" style="" viewBox="0 0 1024 1024" version="1.1" xmlns="http://www.w3.org/2000/svg" p-id="2350" xmlns:xlink="http://www.w3.org/1999/xlink" width="200" height="200"><defs><style type="text/css"></style></defs><path d="M998.428444 381.112889l-469.333333-353.180444c-0.469333-0.355556-0.981333-0.568889-1.479111-0.896-0.796444-0.526222-1.578667-1.024-2.417778-1.464889-0.853333-0.440889-1.692444-0.824889-2.574222-1.180444-0.839111-0.341333-1.649778-0.64-2.517333-0.896-0.910222-0.284444-1.834667-0.497778-2.773333-0.668444-0.867556-0.170667-1.720889-0.298667-2.588444-0.384-0.938667-0.085333-1.863111-0.128-2.787556-0.128-0.896 0-1.792 0.028444-2.688 0.113778-0.910222 0.085333-1.806222 0.227556-2.702222 0.398222-0.896 0.170667-1.763556 0.369778-2.645333 0.625778-0.924444 0.270222-1.820444 0.597333-2.702222 0.967111-0.796444 0.327111-1.564444 0.654222-2.332444 1.066667-0.938667 0.483556-1.834667 1.052444-2.730667 1.649778-0.412444 0.284444-0.867556 0.469333-1.28 0.782222l-469.333333 353.180444c-12.544 9.443556-15.075556 27.278222-5.632 39.836444 5.603556 7.424 14.136889 11.335111 22.755556 11.335111 5.959111 0 11.960889-1.863111 17.080889-5.703111l73.656889-55.424 0 483.043556c0 111.701333 29.141333 147.555556 136.803556 147.555556l483.555556 0c107.662222 0 147.640889-35.854222 147.640889-147.555556L901.404444 379.320889l62.805333 47.260444c5.12 3.854222 11.121778 5.717333 17.080889 5.717333 8.632889 0 17.166222-3.896889 22.755556-11.349333C1013.504 408.391111 1010.986667 390.556444 998.428444 381.112889zM443.747556 674.673778 580.266667 674.673778c31.288889 0 36.707556 0.554667 36.707556 28.8l0 241.422222L417.877333 944.896 417.877333 703.473778C417.877333 675.228444 412.458667 674.673778 443.747556 674.673778zM844.529778 347.562667l0 506.666667c0 81.365333-14.193778 90.666667-90.752 90.666667l-108.359111 0L645.418667 703.473778c0-48.967111-23.850667-57.244444-65.152-57.244444l-136.519111 0c-41.301333 0-54.314667 8.277333-54.314667 57.244444l0 241.422222L270.222222 944.896c-76.572444 0-79.914667-9.301333-79.914667-90.666667L190.307556 347.562667c0-5.788444-1.749333-11.150222-4.721778-15.644444L512 86.272l334.336 251.591111C845.226667 340.906667 844.529778 344.149333 844.529778 347.562667z" p-id="2351"></path><path d="M435.370667 230.499556 250.055111 373.617778c-3.512889 2.688-2.858667 6.855111-2.858667 11.278222l0 161.777778c0 7.879111 6.357333 14.222222 14.222222 14.222222 7.850667 0 14.222222-6.343111 14.222222-14.222222L275.640889 391.907556l178.730667-138.837333c6.243556-4.778667 5.034667-13.710222 0.256-19.939556C449.863111 226.901333 441.6 225.720889 435.370667 230.499556z" p-id="2352"></path><path d="M261.418667 589.340444c-7.864889 0-14.222222 6.357333-14.222222 14.222222l0 14.222222c0 7.879111 6.357333 14.222222 14.222222 14.222222 7.850667 0 14.222222-6.343111 14.222222-14.222222l0-14.222222C275.640889 595.697778 269.269333 589.340444 261.418667 589.340444z" p-id="2353"></path></svg>