<?xml version="1.0" standalone="no"?><!DOCTYPE svg PUBLIC "-//W3C//DTD SVG 1.1//EN" "http://www.w3.org/Graphics/SVG/1.1/DTD/svg11.dtd"><svg t="1486548455425" class="icon" style="" viewBox="0 0 1024 1024" version="1.1" xmlns="http://www.w3.org/2000/svg" p-id="2350" xmlns:xlink="http://www.w3.org/1999/xlink" width="200" height="200"><defs><style type="text/css"></style></defs><path d="M173.337837 310.297139l679.003572 0c24.283056 0 44.032866-21.859867 44.032866-48.733934s-19.750833-48.733934-44.032866-48.733934L173.337837 212.82927c-24.273846 0-44.023656 21.859867-44.023656 48.733934S149.063991 310.297139 173.337837 310.297139z" p-id="2351"></path><path d="M852.340385 463.266066 173.337837 463.266066c-24.273846 0-44.023656 21.859867-44.023656 48.733934 0 26.874067 19.750833 48.733934 44.023656 48.733934l679.003572 0c24.283056 0 44.032866-21.868053 44.032866-48.733934C896.374274 485.134119 876.616278 463.266066 852.340385 463.266066z" p-id="2352"></path><path d="M852.340385 713.702861 173.337837 713.702861c-24.273846 0-44.023656 21.868053-44.023656 48.733934 0 26.865881 19.750833 48.733934 44.023656 48.733934l679.003572 0c24.283056 0 44.032866-21.859867 44.032866-48.733934S876.616278 713.702861 852.340385 713.702861z" p-id="2353"></path></svg>